<svg width="21" height="16" viewBox="0 0 21 16" fill="none" xmlns="http://www.w3.org/2000/svg">
<path d="M6.33325 13H8.41658V12H9.45825C9.75339 12 10.001 11.904 10.201 11.712C10.4003 11.5207 10.4999 11.2833 10.4999 11V8C10.4999 7.71667 10.4003 7.479 10.201 7.287C10.001 7.09567 9.75339 7 9.45825 7H6.33325V6H10.4999V4H8.41658V3H6.33325V4H5.29158C4.99645 4 4.74888 4.09567 4.54888 4.287C4.34957 4.479 4.24992 4.71667 4.24992 5V8C4.24992 8.28333 4.34957 8.52067 4.54888 8.712C4.74888 8.904 4.99645 9 5.29158 9H8.41658V10H4.24992V12H6.33325V13ZM14.6666 12.25L16.7499 10.25H12.5833L14.6666 12.25ZM12.5833 6H16.7499L14.6666 4L12.5833 6ZM2.16659 16C1.59367 16 1.10339 15.8043 0.695752 15.413C0.287419 15.021 0.083252 14.55 0.083252 14V2C0.083252 1.45 0.287419 0.979333 0.695752 0.588C1.10339 0.196 1.59367 0 2.16659 0H18.8333C19.4062 0 19.8968 0.196 20.3051 0.588C20.7128 0.979333 20.9166 1.45 20.9166 2V14C20.9166 14.55 20.7128 15.021 20.3051 15.413C19.8968 15.8043 19.4062 16 18.8333 16H2.16659ZM2.16659 14H18.8333V2H2.16659V14Z" fill="#424242"/>
</svg>
