<svg width="26" height="17" viewBox="0 0 26 17" fill="none" xmlns="http://www.w3.org/2000/svg">
<path d="M13 0.0506592L12.7456 0.136753L2.5894 3.93213L0.280273 4.78128L1.62496 5.2616V13.1913C1.1399 13.5058 0.812461 14.0794 0.812461 14.75C0.812461 15.2307 0.983666 15.6918 1.28841 16.0317C1.59316 16.3716 2.00648 16.5625 2.43746 16.5625C2.86844 16.5625 3.28176 16.3716 3.58651 16.0317C3.89126 15.6918 4.06246 15.2307 4.06246 14.75C4.06246 14.0794 3.73502 13.5058 3.24996 13.1913V5.88691L4.87496 6.4805V11.125C4.87496 11.8682 5.28121 12.4844 5.76384 12.9103C6.24646 13.3336 6.84609 13.6326 7.56596 13.9009C9.00734 14.4356 10.907 14.75 13 14.75C15.093 14.75 16.9926 14.4365 18.434 13.9C19.1538 13.6326 19.7535 13.3336 20.2361 12.9094C20.7187 12.4844 21.125 11.8682 21.125 11.125V6.4805L23.4105 5.63044L25.7196 4.78128L23.4097 3.93122L13.2535 0.136753L13 0.0506592ZM13 1.94925L20.6171 4.78128L13 7.61332L5.38277 4.78128L13 1.94925ZM6.49996 7.104L12.7465 9.42582L13 9.511L13.2543 9.42491L19.5 7.1031V11.125C19.5 11.1341 19.5032 11.2392 19.2456 11.4649C18.9889 11.6914 18.5282 11.9769 17.9253 12.2017C16.7212 12.6484 14.9459 12.9375 13 12.9375C11.054 12.9375 9.27871 12.6493 8.07377 12.2008C7.47252 11.9769 7.01102 11.6905 6.75427 11.4649C6.4959 11.2383 6.49996 11.1341 6.49996 11.125V7.1031V7.104Z" fill="#424242"/>
</svg>
