<svg width="56" height="56" viewBox="0 0 56 56" fill="none" xmlns="http://www.w3.org/2000/svg">
<circle cx="28" cy="28" r="28" fill="#2400FF" fill-opacity="0.2"/>
<path d="M19.2 26.7778V36.5556H23.6V26.7778H19.2ZM25.8 19.4444V36.5556H30.2V19.4444H25.8ZM32.4 29.2222V36.5556H36.8V29.2222H32.4ZM36.8 39H19.2C18.595 39 18.0773 38.7609 17.6468 38.2826C17.2156 37.8034 17 37.2278 17 36.5556V26.7778C17 26.1056 17.2156 25.5299 17.6468 25.0508C18.0773 24.5725 18.595 24.3333 19.2 24.3333H23.6V19.4444C23.6 18.7722 23.8156 18.1966 24.2468 17.7174C24.6773 17.2391 25.195 17 25.8 17H30.2C30.805 17 31.3231 17.2391 31.7543 17.7174C32.1848 18.1966 32.4 18.7722 32.4 19.4444V26.7778H36.8C37.405 26.7778 37.9231 27.0169 38.3543 27.4952C38.7848 27.9743 39 28.55 39 29.2222V36.5556C39 37.2278 38.7848 37.8034 38.3543 38.2826C37.9231 38.7609 37.405 39 36.8 39Z" fill="#2400FF"/>
</svg>
