<svg width="56" height="56" viewBox="0 0 56 56" fill="none" xmlns="http://www.w3.org/2000/svg">
<circle cx="28" cy="28" r="28" fill="#FF0000" fill-opacity="0.2"/>
<path d="M17 24.5625L28 17L39 24.5625M36.5556 29.375V38.175C36.5556 38.3938 36.4783 38.6036 36.3408 38.7584C36.2032 38.9131 36.0167 39 35.8222 39H20.1778C19.9833 39 19.7968 38.9131 19.6592 38.7584C19.5217 38.6036 19.4444 38.3938 19.4444 38.175V29.375" stroke="#FF0000" stroke-width="1.25" stroke-linecap="round" stroke-linejoin="round"/>
<path d="M30.4475 25.039C29.2253 23.7699 25.9656 23.3478 25.9656 25.886C25.9656 28.4243 30.4475 27.1552 30.4475 29.692C30.4475 32.2289 26.7808 32.2303 25.5586 30.5377M28.003 31.716V33.5008M28.003 24.0312V22.5008" stroke="#FF0000" stroke-width="1.25" stroke-linecap="round" stroke-linejoin="round"/>
</svg>
