<svg width="56" height="56" viewBox="0 0 56 56" fill="none" xmlns="http://www.w3.org/2000/svg">
<circle cx="28" cy="28" r="28" fill="#30B602" fill-opacity="0.2"/>
<path d="M40.9179 28.3636L43 30.4145L33.2887 40L28.1282 34.9091L30.2103 32.8582L33.2887 35.8836L40.9179 28.3636ZM24.4103 34.9091L28.8718 39.2727H14V36.3636C14 33.1491 19.3241 30.5455 25.8974 30.5455L28.7082 30.7055L24.4103 34.9091ZM25.8974 16C27.4751 16 28.9882 16.613 30.1038 17.7041C31.2194 18.7952 31.8462 20.2751 31.8462 21.8182C31.8462 23.3613 31.2194 24.8411 30.1038 25.9323C28.9882 27.0234 27.4751 27.6364 25.8974 27.6364C24.3197 27.6364 22.8067 27.0234 21.6911 25.9323C20.5755 24.8411 19.9487 23.3613 19.9487 21.8182C19.9487 20.2751 20.5755 18.7952 21.6911 17.7041C22.8067 16.613 24.3197 16 25.8974 16Z" fill="#30B602"/>
</svg>
