<svg width="56" height="56" viewBox="0 0 56 56" fill="none" xmlns="http://www.w3.org/2000/svg">
<circle cx="28" cy="28" r="28" fill="#FA00FF" fill-opacity="0.2"/>
<path d="M28 39C21.9247 39 17 34.0753 17 28C17 21.9247 21.9247 17 28 17C34.0753 17 39 21.9247 39 28C39 34.0753 34.0753 39 28 39ZM28 36.8C30.3339 36.8 32.5722 35.8729 34.2225 34.2225C35.8729 32.5722 36.8 30.3339 36.8 28C36.8 25.6661 35.8729 23.4278 34.2225 21.7775C32.5722 20.1271 30.3339 19.2 28 19.2C25.6661 19.2 23.4278 20.1271 21.7775 21.7775C20.1271 23.4278 19.2 25.6661 19.2 28C19.2 30.3339 20.1271 32.5722 21.7775 34.2225C23.4278 35.8729 25.6661 36.8 28 36.8ZM29.1 28H33.5V30.2H26.9V22.5H29.1V28Z" fill="#FA00FF"/>
</svg>
