<svg width="22" height="20" viewBox="0 0 22 20" fill="none" xmlns="http://www.w3.org/2000/svg">
<path d="M14.6666 1.8147H7.33325C4.3 1.8147 1.83325 4.01715 1.83325 6.72541V17.3653C1.83325 17.5824 1.92983 17.7905 2.10174 17.944C2.27365 18.0975 2.5068 18.1837 2.74992 18.1837H14.6666C17.6998 18.1837 20.1666 15.9813 20.1666 13.273V6.72541C20.1666 4.01715 17.6998 1.8147 14.6666 1.8147ZM18.3333 13.273C18.3333 15.0785 16.6888 16.5468 14.6666 16.5468H3.66659V6.72541C3.66659 4.91991 5.31109 3.4516 7.33325 3.4516H14.6666C16.6888 3.4516 18.3333 4.91991 18.3333 6.72541V13.273Z" fill="#424242"/>
<path d="M6.41675 12.4438V14.0799H8.24916L13.3174 9.56043L11.4859 7.92516L6.41675 12.4438ZM14.1809 8.78945L12.3494 7.15255L13.7455 5.90686L15.5788 7.54295L14.1809 8.78945Z" fill="#424242"/>
</svg>
