<svg width="15" height="24" viewBox="0 0 15 24" fill="none" xmlns="http://www.w3.org/2000/svg">
<path d="M14.9565 8.57285C14.947 8.46995 14.9287 8.36859 14.9018 8.27045V8.16965C14.8578 8.05449 14.7993 7.94864 14.7283 7.85605L9.25001 1.13605C9.17451 1.04894 9.08822 0.977098 8.99436 0.923249H8.91219C8.81942 0.857998 8.71698 0.81611 8.61088 0.800049H3.08697C2.36051 0.800049 1.6638 1.15405 1.15011 1.78417C0.636425 2.41429 0.347839 3.26892 0.347839 4.16005V19.84C0.347839 20.7311 0.636425 21.5858 1.15011 22.2159C1.6638 22.846 2.36051 23.2 3.08697 23.2H12.2174C12.9438 23.2 13.6406 22.846 14.1542 22.2159C14.6679 21.5858 14.9565 20.7311 14.9565 19.84V8.64005C14.9565 8.64005 14.9565 8.64005 14.9565 8.57285ZM9.47827 4.61925L11.8431 7.52005H10.3913C10.1492 7.52005 9.9169 7.40204 9.7457 7.19201C9.57451 6.98197 9.47827 6.69709 9.47827 6.40005V4.61925ZM13.1304 19.84C13.1304 20.1371 13.0342 20.422 12.863 20.632C12.6918 20.842 12.4595 20.96 12.2174 20.96H3.08697C2.84481 20.96 2.61258 20.842 2.44135 20.632C2.27012 20.422 2.17393 20.1371 2.17393 19.84V4.16005C2.17393 3.863 2.27012 3.57813 2.44135 3.36809C2.61258 3.15805 2.84481 3.04005 3.08697 3.04005H7.65219V6.40005C7.65219 7.29118 7.9408 8.1458 8.45448 8.77593C8.96816 9.40605 9.6649 9.76005 10.3913 9.76005H13.1304V19.84Z" fill="#424242"/>
</svg>
