<svg width="19" height="19" viewBox="0 0 19 19" fill="none" xmlns="http://www.w3.org/2000/svg">
<path d="M4.50404 4.64905C3.43317 5.71053 2.76609 7.10795 2.61749 8.60348C2.46889 10.099 2.84811 11.599 3.68985 12.8477C4.53152 14.0963 5.78326 15.0161 7.23111 15.4515C8.6789 15.8868 10.2341 15.8111 11.6321 15.2372C13.0301 14.6631 14.1851 13.626 14.8994 12.3013C15.6137 10.9766 15.8428 9.44686 15.547 7.97303C15.2513 6.49925 14.4493 5.17361 13.2789 4.22149C12.1086 3.26945 10.6421 2.74957 9.12942 2.74957" stroke="#424242" stroke-linecap="round"/>
<path d="M9.12953 9.24015L4.59692 4.74725" stroke="#424242" stroke-linecap="round"/>
<path d="M9.12939 2.50079V3.99822" stroke="#424242" stroke-linecap="round"/>
<path d="M15.9282 9.24011L14.4174 9.24011" stroke="#424242" stroke-linecap="round"/>
<path d="M9.12939 14.4818V15.9792" stroke="#424242" stroke-linecap="round"/>
<path d="M3.84131 9.24011L2.33044 9.24011" stroke="#424242" stroke-linecap="round"/>
</svg>
