<svg width="30" height="30" viewBox="0 0 30 30" fill="none" xmlns="http://www.w3.org/2000/svg">
<mask id="path-1-inside-1_6_10260" fill="white">
<path d="M26.6667 0H3.33333C1.48333 0 0 1.48333 0 3.33333V26.6667C0 27.5507 0.351189 28.3986 0.976311 29.0237C1.60143 29.6488 2.44928 30 3.33333 30H26.6667C28.5167 30 30 28.5167 30 26.6667V3.33333C30 2.44928 29.6488 1.60143 29.0237 0.976311C28.3986 0.351189 27.5507 0 26.6667 0ZM26.6667 26.6667H3.33333V3.33333H26.6667V26.6667ZM23.3333 20.3667C23.3333 22 22 23.3333 20.3667 23.3333C18.7333 23.3333 17.4167 22 17.4167 20.3667C17.4167 18.7333 18.7333 17.4167 20.3667 17.4167C22 17.4167 23.3333 18.7333 23.3333 20.3667ZM9.16667 23.3833L6.66667 20.8833L20.8833 6.66667L23.3833 9.16667L9.16667 23.3833ZM6.75 9.71667C6.75 8.06667 8.06667 6.75 9.71667 6.75C11.35 6.75 12.6667 8.06667 12.6667 9.71667C12.6667 11.35 11.35 12.6667 9.71667 12.6667C8.06667 12.6667 6.75 11.35 6.75 9.71667Z"/>
</mask>
<path d="M26.6667 0H3.33333C1.48333 0 0 1.48333 0 3.33333V26.6667C0 27.5507 0.351189 28.3986 0.976311 29.0237C1.60143 29.6488 2.44928 30 3.33333 30H26.6667C28.5167 30 30 28.5167 30 26.6667V3.33333C30 2.44928 29.6488 1.60143 29.0237 0.976311C28.3986 0.351189 27.5507 0 26.6667 0ZM26.6667 26.6667H3.33333V3.33333H26.6667V26.6667ZM23.3333 20.3667C23.3333 22 22 23.3333 20.3667 23.3333C18.7333 23.3333 17.4167 22 17.4167 20.3667C17.4167 18.7333 18.7333 17.4167 20.3667 17.4167C22 17.4167 23.3333 18.7333 23.3333 20.3667ZM9.16667 23.3833L6.66667 20.8833L20.8833 6.66667L23.3833 9.16667L9.16667 23.3833ZM6.75 9.71667C6.75 8.06667 8.06667 6.75 9.71667 6.75C11.35 6.75 12.6667 8.06667 12.6667 9.71667C12.6667 11.35 11.35 12.6667 9.71667 12.6667C8.06667 12.6667 6.75 11.35 6.75 9.71667Z" fill="#424242"/>
<path d="M26.6667 0V-0.9V0ZM0 26.6667H-0.9H0ZM26.6667 26.6667V27.5667H27.5667V26.6667H26.6667ZM3.33333 26.6667H2.43333V27.5667H3.33333V26.6667ZM3.33333 3.33333V2.43333H2.43333V3.33333H3.33333ZM26.6667 3.33333H27.5667V2.43333H26.6667V3.33333ZM6.66667 20.8833L6.03027 20.2469L5.39387 20.8833L6.03027 21.5197L6.66667 20.8833ZM20.8833 6.66667L21.5197 6.03027L20.8833 5.39387L20.2469 6.03027L20.8833 6.66667ZM23.3833 9.16667L24.0197 9.80306L24.6561 9.16667L24.0197 8.53027L23.3833 9.16667ZM26.6667 -0.9H3.33333V0.9H26.6667V-0.9ZM3.33333 -0.9C0.986277 -0.9 -0.9 0.986277 -0.9 3.33333H0.9C0.9 1.98039 1.98039 0.9 3.33333 0.9V-0.9ZM-0.9 3.33333V26.6667H0.9V3.33333H-0.9ZM-0.9 26.6667C-0.9 27.7894 -0.453989 28.8662 0.339914 29.6601L1.61271 28.3873C1.15637 27.931 0.9 27.312 0.9 26.6667H-0.9ZM0.339914 29.6601C1.13382 30.454 2.21058 30.9 3.33333 30.9V29.1C2.68797 29.1 2.06905 28.8436 1.61271 28.3873L0.339914 29.6601ZM3.33333 30.9H26.6667V29.1H3.33333V30.9ZM26.6667 30.9C29.0137 30.9 30.9 29.0137 30.9 26.6667H29.1C29.1 28.0196 28.0196 29.1 26.6667 29.1V30.9ZM30.9 26.6667V3.33333H29.1V26.6667H30.9ZM30.9 3.33333C30.9 2.21058 30.454 1.13382 29.6601 0.339914L28.3873 1.61271C28.8436 2.06905 29.1 2.68797 29.1 3.33333H30.9ZM29.6601 0.339914C28.8662 -0.453989 27.7894 -0.9 26.6667 -0.9V0.9C27.312 0.9 27.931 1.15637 28.3873 1.61271L29.6601 0.339914ZM26.6667 25.7667H3.33333V27.5667H26.6667V25.7667ZM4.23333 26.6667V3.33333H2.43333V26.6667H4.23333ZM3.33333 4.23333H26.6667V2.43333H3.33333V4.23333ZM25.7667 3.33333V26.6667H27.5667V3.33333H25.7667ZM22.4333 20.3667C22.4333 21.5029 21.5029 22.4333 20.3667 22.4333V24.2333C22.4971 24.2333 24.2333 22.4971 24.2333 20.3667H22.4333ZM20.3667 22.4333C19.237 22.4333 18.3167 21.5096 18.3167 20.3667H16.5167C16.5167 22.4904 18.2297 24.2333 20.3667 24.2333V22.4333ZM18.3167 20.3667C18.3167 19.2304 19.2304 18.3167 20.3667 18.3167V16.5167C18.2363 16.5167 16.5167 18.2363 16.5167 20.3667H18.3167ZM20.3667 18.3167C21.5096 18.3167 22.4333 19.237 22.4333 20.3667H24.2333C24.2333 18.2297 22.4904 16.5167 20.3667 16.5167V18.3167ZM9.80306 22.7469L7.30306 20.2469L6.03027 21.5197L8.53027 24.0197L9.80306 22.7469ZM7.30306 21.5197L21.5197 7.30306L20.2469 6.03027L6.03027 20.2469L7.30306 21.5197ZM20.2469 7.30306L22.7469 9.80306L24.0197 8.53027L21.5197 6.03027L20.2469 7.30306ZM22.7469 8.53027L8.53027 22.7469L9.80306 24.0197L24.0197 9.80306L22.7469 8.53027ZM7.65 9.71667C7.65 8.56372 8.56372 7.65 9.71667 7.65V5.85C7.56961 5.85 5.85 7.56961 5.85 9.71667H7.65ZM9.71667 7.65C10.8496 7.65 11.7667 8.56041 11.7667 9.71667H13.5667C13.5667 7.57292 11.8504 5.85 9.71667 5.85V7.65ZM11.7667 9.71667C11.7667 10.8529 10.8529 11.7667 9.71667 11.7667V13.5667C11.8471 13.5667 13.5667 11.8471 13.5667 9.71667H11.7667ZM9.71667 11.7667C8.56041 11.7667 7.65 10.8496 7.65 9.71667H5.85C5.85 11.8504 7.57292 13.5667 9.71667 13.5667V11.7667Z" fill="#FFE6E6" mask="url(#path-1-inside-1_6_10260)"/>
</svg>
