<svg width="32" height="32" viewBox="0 0 32 32" fill="none" xmlns="http://www.w3.org/2000/svg">
<path d="M28.5 1H3.5C2.11929 1 1 2.11929 1 3.5V28.5C1 29.8807 2.11929 31 3.5 31H28.5C29.8807 31 31 29.8807 31 28.5V3.5C31 2.11929 29.8807 1 28.5 1Z" stroke="#424242" stroke-width="1.5" stroke-linecap="round" stroke-linejoin="round"/>
<path d="M6.83301 21.8334V10.1667H13.4997M6.83301 16H13.083M6.83301 21.8334H13.083M17.6663 21.8334V11.8334M17.6663 21.8334V16.4167C17.6663 15.4221 18.0614 14.4683 18.7647 13.765C19.468 13.0618 20.4218 12.6667 21.4163 12.6667C22.4109 12.6667 23.3647 13.0618 24.068 13.765C24.7713 14.4683 25.1663 15.4221 25.1663 16.4167V21.8334" stroke="#424242" stroke-width="1.5" stroke-linecap="round" stroke-linejoin="round"/>
</svg>
