<svg width="30" height="30" viewBox="0 0 30 30" fill="none" xmlns="http://www.w3.org/2000/svg">
<path d="M16.25 13.75C16.25 12.7554 16.6451 11.8016 17.3483 11.0983C18.0516 10.3951 19.0054 10 20 10H23.75C24.0815 10 24.3995 10.1317 24.6339 10.3661C24.8683 10.6005 25 10.9185 25 11.25C25 11.5815 24.8683 11.8995 24.6339 12.1339C24.3995 12.3683 24.0815 12.5 23.75 12.5H20C19.6685 12.5 19.3505 12.6317 19.1161 12.8661C18.8817 13.1005 18.75 13.4185 18.75 13.75V15C18.75 15.3315 18.8817 15.6495 19.1161 15.8839C19.3505 16.1183 19.6685 16.25 20 16.25H21.25C22.2446 16.25 23.1984 16.6451 23.9017 17.3483C24.6049 18.0516 25 19.0054 25 20V21.25C25 22.2446 24.6049 23.1984 23.9017 23.9017C23.1984 24.6049 22.2446 25 21.25 25H17.5C17.1685 25 16.8505 24.8683 16.6161 24.6339C16.3817 24.3995 16.25 24.0815 16.25 23.75C16.25 23.4185 16.3817 23.1005 16.6161 22.8661C16.8505 22.6317 17.1685 22.5 17.5 22.5H21.25C21.5815 22.5 21.8995 22.3683 22.1339 22.1339C22.3683 21.8995 22.5 21.5815 22.5 21.25V20C22.5 19.6685 22.3683 19.3505 22.1339 19.1161C21.8995 18.8817 21.5815 18.75 21.25 18.75H20C19.0054 18.75 18.0516 18.3549 17.3483 17.6517C16.6451 16.9484 16.25 15.9946 16.25 15V13.75ZM15 11.25C15 10.9185 14.8683 10.6005 14.6339 10.3661C14.3995 10.1317 14.0815 10 13.75 10C13.4185 10 13.1005 10.1317 12.8661 10.3661C12.6317 10.6005 12.5 10.9185 12.5 11.25V21.25C12.5 21.5815 12.3683 21.8995 12.1339 22.1339C11.8995 22.3683 11.5815 22.5 11.25 22.5H8.75C8.41848 22.5 8.10054 22.6317 7.86612 22.8661C7.6317 23.1005 7.5 23.4185 7.5 23.75C7.5 24.0815 7.6317 24.3995 7.86612 24.6339C8.10054 24.8683 8.41848 25 8.75 25H11.25C12.2446 25 13.1984 24.6049 13.9017 23.9017C14.6049 23.1984 15 22.2446 15 21.25V11.25ZM0 6.25C0 4.5924 0.65848 3.00269 1.83058 1.83058C3.00269 0.65848 4.5924 0 6.25 0H23.75C25.4076 0 26.9973 0.65848 28.1694 1.83058C29.3415 3.00269 30 4.5924 30 6.25V23.75C30 25.4076 29.3415 26.9973 28.1694 28.1694C26.9973 29.3415 25.4076 30 23.75 30H6.25C4.5924 30 3.00269 29.3415 1.83058 28.1694C0.65848 26.9973 0 25.4076 0 23.75V6.25ZM6.25 2.5C5.25544 2.5 4.30161 2.89509 3.59835 3.59835C2.89509 4.30161 2.5 5.25544 2.5 6.25V23.75C2.5 24.7446 2.89509 25.6984 3.59835 26.4017C4.30161 27.1049 5.25544 27.5 6.25 27.5H23.75C24.7446 27.5 25.6984 27.1049 26.4017 26.4017C27.1049 25.6984 27.5 24.7446 27.5 23.75V6.25C27.5 5.25544 27.1049 4.30161 26.4017 3.59835C25.6984 2.89509 24.7446 2.5 23.75 2.5H6.25Z" fill="#424242"/>
</svg>
