<svg width="32" height="32" viewBox="0 0 32 32" fill="none" xmlns="http://www.w3.org/2000/svg">
<path d="M28.5 1H3.5C2.83696 1 2.20107 1.26339 1.73223 1.73223C1.26339 2.20107 1 2.83696 1 3.5V28.5C1 29.163 1.26339 29.7989 1.73223 30.2678C2.20107 30.7366 2.83696 31 3.5 31H28.5C29.163 31 29.7989 30.7366 30.2678 30.2678C30.7366 29.7989 31 29.163 31 28.5V3.5C31 2.83696 30.7366 2.20107 30.2678 1.73223C29.7989 1.26339 29.163 1 28.5 1Z" stroke="#424242" stroke-width="1.5"/>
<path d="M7.66699 8.5V23.5" stroke="#424242" stroke-width="1.5" stroke-linecap="round" stroke-linejoin="round"/>
<path d="M9.33366 16.8333C11.8337 16.8333 15.167 16.1667 15.167 12.6667C15.167 9.16667 11.8337 8.5 9.33366 8.5H7.66699V16.8333H9.33366Z" stroke="#424242" stroke-width="1.5" stroke-linecap="round" stroke-linejoin="round"/>
<path d="M24.333 13.5208C23.4997 13.5208 19.333 13.1058 19.333 16.01C19.333 18.915 24.333 18.085 24.333 20.99C24.333 23.8941 19.333 23.4791 19.333 23.4791" stroke="#424242" stroke-width="1.5" stroke-linecap="round" stroke-linejoin="round"/>
</svg>
