<svg width="25" height="36" viewBox="0 0 25 36" fill="none" xmlns="http://www.w3.org/2000/svg">
<path d="M21.1563 12.6875C22.278 11.874 23.1134 10.7264 23.5429 9.4091C23.9724 8.09176 23.9739 6.67229 23.5472 5.35405C23.1205 4.03581 22.2875 2.88644 21.1675 2.07063C20.0476 1.25481 18.6982 0.8144 17.3126 0.8125H6.68759C5.30201 0.8144 3.95259 1.25481 2.83264 2.07063C1.7127 2.88644 0.879711 4.03581 0.453017 5.35405C0.0263228 6.67229 0.0278195 8.09176 0.457293 9.4091C0.886767 10.7264 1.72218 11.874 2.84384 12.6875C2.00173 13.294 1.31587 14.092 0.84281 15.0156C0.36975 15.9393 0.123047 16.9622 0.123047 18C0.123047 19.0378 0.36975 20.0607 0.84281 20.9844C1.31587 21.908 2.00173 22.706 2.84384 23.3125C1.93296 23.9707 1.20638 24.8519 0.733721 25.8715C0.261064 26.8911 0.058167 28.015 0.144471 29.1355C0.230775 30.256 0.603389 31.3356 1.22661 32.2708C1.84983 33.206 2.70277 33.9654 3.70371 34.4764C4.70465 34.9874 5.82004 35.2328 6.94302 35.189C8.06599 35.1453 9.15892 34.8139 10.1171 34.2266C11.0752 33.6393 11.8665 32.8158 12.4151 31.8349C12.9637 30.8541 13.2512 29.7488 13.2501 28.625V23.1406C13.9313 23.7154 14.7224 24.1453 15.5751 24.4043C16.4279 24.6633 17.3245 24.7459 18.2103 24.647C19.096 24.5481 19.9523 24.2698 20.727 23.8291C21.5017 23.3884 22.1784 22.7946 22.7161 22.0837C23.2537 21.3729 23.6409 20.56 23.8541 19.6947C24.0673 18.8293 24.1019 17.9296 23.956 17.0503C23.81 16.1711 23.4865 15.3309 23.0052 14.5808C22.5239 13.8307 21.8948 13.1865 21.1563 12.6875ZM21.3751 7.375C21.371 8.45118 20.9416 9.4821 20.1807 10.2431C19.4197 11.0041 18.3888 11.4334 17.3126 11.4375H13.2501V3.3125H17.3126C18.3888 3.31662 19.4197 3.74595 20.1807 4.50693C20.9416 5.2679 21.371 6.29882 21.3751 7.375ZM2.62509 7.375C2.6292 6.29882 3.05854 5.2679 3.81951 4.50693C4.58049 3.74595 5.61141 3.31662 6.68759 3.3125H10.7501V11.4375H6.68759C5.61141 11.4334 4.58049 11.0041 3.81951 10.2431C3.05854 9.4821 2.6292 8.45118 2.62509 7.375ZM2.62509 18C2.6292 16.9238 3.05854 15.8929 3.81951 15.1319C4.58049 14.3709 5.61141 13.9416 6.68759 13.9375H10.7501V22.0625H6.68759C5.61141 22.0584 4.58049 21.6291 3.81951 20.8681C3.05854 20.1071 2.6292 19.0762 2.62509 18ZM6.68759 32.6875C5.61015 32.6875 4.57683 32.2595 3.81497 31.4976C3.0531 30.7358 2.62509 29.7024 2.62509 28.625C2.62509 27.5476 3.0531 26.5142 3.81497 25.7524C4.57683 24.9905 5.61015 24.5625 6.68759 24.5625H10.7501V28.625C10.746 29.7012 10.3166 30.7321 9.55566 31.4931C8.79469 32.2541 7.76376 32.6834 6.68759 32.6875ZM17.3126 22.0625C16.2351 22.0625 15.2018 21.6345 14.44 20.8726C13.6781 20.1108 13.2501 19.0774 13.2501 18C13.2501 16.9226 13.6781 15.8892 14.44 15.1274C15.2018 14.3655 16.2351 13.9375 17.3126 13.9375C18.39 13.9375 19.4233 14.3655 20.1852 15.1274C20.9471 15.8892 21.3751 16.9226 21.3751 18C21.3751 19.0774 20.9471 20.1108 20.1852 20.8726C19.4233 21.6345 18.39 22.0625 17.3126 22.0625Z" fill="#424242"/>
</svg>
