<svg width="26" height="26" viewBox="0 0 26 26" fill="none" xmlns="http://www.w3.org/2000/svg">
<path d="M11.9165 18.4167H14.0832V11.9167H11.9165V18.4167ZM12.9998 9.74999C13.3068 9.74999 13.5643 9.64599 13.7723 9.43799C13.9803 9.22999 14.0839 8.97288 14.0832 8.66666C14.0832 8.35971 13.9792 8.10224 13.7712 7.89424C13.5632 7.68624 13.3061 7.5826 12.9998 7.58332C12.6929 7.58332 12.4354 7.68732 12.2274 7.89532C12.0194 8.10332 11.9158 8.36043 11.9165 8.66666C11.9165 8.9736 12.0205 9.23107 12.2285 9.43907C12.4365 9.64707 12.6936 9.75071 12.9998 9.74999ZM12.9998 23.8333C11.5012 23.8333 10.0929 23.5488 8.77484 22.9797C7.45678 22.4105 6.31025 21.6389 5.33525 20.6646C4.36025 19.6896 3.58856 18.543 3.02017 17.225C2.45178 15.9069 2.16723 14.4986 2.1665 13C2.1665 11.5014 2.45106 10.093 3.02017 8.77499C3.58928 7.45693 4.36098 6.31041 5.33525 5.33541C6.31025 4.36041 7.45678 3.58871 8.77484 3.02032C10.0929 2.45193 11.5012 2.16738 12.9998 2.16666C14.4984 2.16666 15.9068 2.45121 17.2248 3.02032C18.5429 3.58943 19.6894 4.36113 20.6644 5.33541C21.6394 6.31041 22.4115 7.45693 22.9806 8.77499C23.5497 10.093 23.8339 11.5014 23.8332 13C23.8332 14.4986 23.5486 15.9069 22.9795 17.225C22.4104 18.543 21.6387 19.6896 20.6644 20.6646C19.6894 21.6396 18.5429 22.4116 17.2248 22.9807C15.9068 23.5499 14.4984 23.834 12.9998 23.8333ZM12.9998 21.6667C15.4193 21.6667 17.4686 20.8271 19.1478 19.1479C20.8269 17.4687 21.6665 15.4194 21.6665 13C21.6665 10.5805 20.8269 8.53124 19.1478 6.85207C17.4686 5.17291 15.4193 4.33332 12.9998 4.33332C10.5804 4.33332 8.53109 5.17291 6.85192 6.85207C5.17275 8.53124 4.33317 10.5805 4.33317 13C4.33317 15.4194 5.17275 17.4687 6.85192 19.1479C8.53109 20.8271 10.5804 21.6667 12.9998 21.6667Z" fill="#303030"/>
</svg>
