<svg width="14" height="14" viewBox="0 0 14 14" fill="none" xmlns="http://www.w3.org/2000/svg">
<path d="M13.2889 11.9609C13.3763 12.048 13.4457 12.1515 13.493 12.2655C13.5403 12.3794 13.5647 12.5016 13.5647 12.625C13.5647 12.7484 13.5403 12.8706 13.493 12.9845C13.4457 13.0985 13.3763 13.202 13.2889 13.2891C13.112 13.4637 12.8734 13.5616 12.6249 13.5616C12.3763 13.5616 12.1377 13.4637 11.9608 13.2891L6.99986 8.32813L2.03892 13.2891C1.86201 13.4637 1.62344 13.5616 1.37486 13.5616C1.12628 13.5616 0.887711 13.4637 0.710798 13.2891C0.623398 13.202 0.554051 13.0985 0.506733 12.9845C0.459416 12.8706 0.435059 12.7484 0.435059 12.625C0.435059 12.5016 0.459416 12.3794 0.506733 12.2655C0.554051 12.1515 0.623398 12.048 0.710798 11.9609L5.67174 7.00001L0.710798 2.03907C0.534678 1.86295 0.435734 1.62408 0.435734 1.37501C0.435734 1.25168 0.460026 1.12956 0.507221 1.01562C0.554417 0.901681 0.623592 0.798152 0.710798 0.710946C0.798004 0.62374 0.901533 0.554565 1.01547 0.507369C1.12941 0.460174 1.25153 0.435883 1.37486 0.435883C1.62393 0.435883 1.8628 0.534826 2.03892 0.710946L6.99986 5.67188L11.9608 0.710946C12.1369 0.534826 12.3758 0.435883 12.6249 0.435883C12.8739 0.435883 13.1128 0.534826 13.2889 0.710946C13.465 0.887067 13.564 1.12594 13.564 1.37501C13.564 1.62408 13.465 1.86295 13.2889 2.03907L8.32799 7.00001L13.2889 11.9609Z" fill="#424242"/>
</svg>
