<svg width="18" height="16" viewBox="0 0 18 16" fill="none" xmlns="http://www.w3.org/2000/svg">
<path d="M0.685304 5.49501C0.68486 4.83851 0.815373 4.18837 1.06937 3.58183C1.32337 2.97528 1.69586 2.42424 2.16552 1.96026C2.63517 1.49628 3.19277 1.12847 3.80637 0.877898C4.41998 0.627326 5.07754 0.498911 5.7414 0.500007H12.4829C15.2747 0.500007 17.539 2.74584 17.539 5.49501V15.5H5.7414C2.94959 15.5 0.685304 13.2542 0.685304 10.505V5.49501ZM15.8536 13.8333V5.49501C15.8514 4.61209 15.4954 3.76604 14.8636 3.14219C14.2318 2.51834 13.3757 2.16755 12.4829 2.16667H5.7414C5.29886 2.16558 4.86046 2.25088 4.45133 2.4177C4.04221 2.58451 3.6704 2.82955 3.35725 3.13877C3.04409 3.44799 2.79574 3.8153 2.62644 4.21963C2.45714 4.62397 2.37022 5.05738 2.37067 5.49501V10.505C2.3729 11.3879 2.7289 12.234 3.3607 12.8578C3.9925 13.4817 4.84857 13.8325 5.7414 13.8333H15.8536ZM10.7975 7.16667H12.4829V8.83334H10.7975V7.16667ZM5.7414 7.16667H7.42676V8.83334H5.7414V7.16667Z" fill="#424242"/>
</svg>
