<svg width="16" height="16" viewBox="0 0 16 16" fill="none" xmlns="http://www.w3.org/2000/svg">
<path d="M9.66634 3.00004L11.5772 1.0892C11.7334 0.932978 11.9454 0.845215 12.1663 0.845215C12.3873 0.845215 12.5992 0.932978 12.7555 1.0892L14.9105 3.2442C15.0667 3.40048 15.1545 3.6124 15.1545 3.83337C15.1545 4.05434 15.0667 4.26626 14.9105 4.42254L12.9997 6.33337M9.66634 3.00004L1.57717 11.0892C1.42088 11.2454 1.33306 11.4574 1.33301 11.6784V13.8334C1.33301 14.0544 1.42081 14.2663 1.57709 14.4226C1.73337 14.5789 1.94533 14.6667 2.16634 14.6667H4.32134C4.54234 14.6667 4.75426 14.5788 4.91051 14.4225L12.9997 6.33337M9.66634 3.00004L12.9997 6.33337" stroke="#424242" stroke-width="1.66667" stroke-linecap="round" stroke-linejoin="round"/>
</svg>
