<svg width="28" height="28" viewBox="0 0 28 28" fill="none" xmlns="http://www.w3.org/2000/svg">
<path d="M24.7738 6.16881L14.2738 2.66881C14.0956 2.61398 13.9051 2.61398 13.7269 2.66881L3.23783 6.16881H3.21595L3.10658 6.22349H3.09564L2.98627 6.28912C2.98627 6.30006 2.97533 6.30006 2.96439 6.31099L2.87689 6.38756L2.80033 6.47506C2.80033 6.48599 2.78939 6.48599 2.78939 6.49693L2.72377 6.59537C2.72377 6.60631 2.72377 6.60631 2.71283 6.61724L2.66908 6.71568L2.63627 6.83599V6.86881C2.62548 6.91167 2.62178 6.956 2.62533 7.00006V15.7501C2.62533 15.9821 2.71751 16.2047 2.88161 16.3688C3.0457 16.5329 3.26826 16.6251 3.50033 16.6251C3.73239 16.6251 3.95495 16.5329 4.11905 16.3688C4.28314 16.2047 4.37533 15.9821 4.37533 15.7501V8.21412L8.05033 9.43912C7.35991 10.5442 6.99592 11.822 7.00033 13.1251C7.00073 14.3101 7.302 15.4757 7.8759 16.5126C8.44981 17.5494 9.27756 18.4236 10.2816 19.0532C8.19514 19.8425 6.41392 21.2751 5.19564 23.1438C5.07146 23.3402 5.02939 23.5775 5.07849 23.8045C5.12759 24.0316 5.26393 24.2303 5.45814 24.3579C5.55345 24.421 5.66033 24.4646 5.77261 24.4862C5.88489 24.5077 6.00033 24.5067 6.11224 24.4833C6.22414 24.4599 6.33029 24.4146 6.42454 24.3498C6.51878 24.2851 6.59925 24.2023 6.66127 24.1063C7.45547 22.883 8.54288 21.8775 9.82463 21.1815C11.1064 20.4854 12.5418 20.1208 14.0003 20.1208C15.4589 20.1208 16.8943 20.4854 18.176 21.1815C19.4578 21.8775 20.5452 22.883 21.3394 24.1063C21.4193 24.2276 21.5281 24.3271 21.656 24.3958C21.7839 24.4646 21.927 24.5004 22.0722 24.5001C22.2398 24.5018 22.404 24.4522 22.5425 24.3579C22.7367 24.2303 22.8731 24.0316 22.9222 23.8045C22.9713 23.5775 22.9292 23.3402 22.805 23.1438C21.5867 21.2751 19.8055 19.8425 17.7191 19.0532C18.7231 18.4236 19.5508 17.5494 20.1248 16.5126C20.6987 15.4757 20.9999 14.3101 21.0003 13.1251C21.0047 11.822 20.6407 10.5442 19.9503 9.43912L24.7738 7.83131C24.9488 7.77377 25.1012 7.66243 25.2093 7.51316C25.3174 7.3639 25.3755 7.18433 25.3755 7.00006C25.3755 6.81578 25.3174 6.63621 25.2093 6.48695C25.1012 6.33768 24.9488 6.22635 24.7738 6.16881ZM19.2503 13.1251C19.2503 14.5174 18.6972 15.8528 17.7126 16.8374C16.7281 17.8219 15.3927 18.3751 14.0003 18.3751C12.6079 18.3751 11.2726 17.8219 10.288 16.8374C9.30345 15.8528 8.75033 14.5174 8.75033 13.1251C8.75244 12.0048 9.10844 10.9138 9.76752 10.0079L13.7269 11.3313C13.9045 11.3897 14.0962 11.3897 14.2738 11.3313L18.2331 10.0079C18.8922 10.9138 19.2482 12.0048 19.2503 13.1251ZM18.2331 8.17037H18.2222L14.0003 9.58131L9.77845 8.17037H9.76752L6.26752 7.00006L14.0003 4.41881L21.7331 7.00006L18.2331 8.17037Z" fill="#2A00FF"/>
</svg>
