<svg width="25" height="31" viewBox="0 0 25 31" fill="none" xmlns="http://www.w3.org/2000/svg">
<path d="M14.2246 0.530588L7.57188 7.37653C7.26216 7.69944 7.09209 8.13135 7.09849 8.57874C7.1049 9.02614 7.28726 9.453 7.60611 9.76691C7.76512 9.92197 7.95317 10.0441 8.15949 10.1263C8.36581 10.2086 8.58632 10.2493 8.8084 10.2461C9.03048 10.2429 9.24974 10.1959 9.45362 10.1078C9.6575 10.0197 9.84198 9.89224 9.99649 9.73269L15.4711 4.09905L21.1047 9.57365C21.4262 9.88609 21.8587 10.058 22.307 10.0516C22.529 10.0484 22.7481 10.0016 22.952 9.91367C23.1558 9.82579 23.3404 9.69862 23.4951 9.53942C23.6498 9.38022 23.7716 9.19211 23.8537 8.98582C23.9357 8.77953 23.9762 8.55911 23.9731 8.33714C23.9666 7.88886 23.7824 7.46149 23.4609 7.14904L16.6149 0.496364C16.4559 0.341305 16.2679 0.219158 16.0616 0.136932C15.8552 0.0547048 15.6347 0.0140152 15.4126 0.0171948C15.1906 0.0203743 14.9713 0.0673604 14.7674 0.155461C14.5635 0.243559 14.3791 0.37104 14.2246 0.530588ZM16.7277 8.37056L23.5736 15.0232C23.7328 15.1779 23.86 15.3625 23.9479 15.5663C24.0357 15.7702 24.0826 15.9894 24.0858 16.2113C24.089 16.4333 24.0484 16.6537 23.9664 16.86C23.8844 17.0663 23.7625 17.2544 23.6078 17.4136C23.2954 17.7351 22.868 17.9194 22.4197 17.9258C21.9715 17.9322 21.539 17.7603 21.2175 17.4478L17.2953 13.6364L17.3175 15.1831C17.3714 19.2096 15.8255 23.093 13.0192 25.9808C10.2128 28.8687 6.3753 30.5251 2.34893 30.5865C1.90142 30.5929 1.4697 30.4213 1.14874 30.1094C0.82777 29.7975 0.643853 29.3708 0.637446 28.9233C0.631039 28.4758 0.802666 28.0441 1.11457 27.7231C1.42647 27.4022 1.85311 27.2182 2.30062 27.2118C5.43197 27.1633 8.41622 25.8747 10.5988 23.6288C12.7813 21.3828 13.9839 18.3629 13.9428 15.2314L13.9207 13.6847L10.1092 17.6069C9.95472 17.7664 9.77024 17.8939 9.56636 17.982C9.36248 18.0701 9.14321 18.1171 8.92114 18.1203C8.69906 18.1235 8.47854 18.0828 8.27223 18.0005C8.06591 17.9183 7.87785 17.7962 7.71884 17.6411C7.4 17.3272 7.21763 16.9003 7.21123 16.4529C7.20482 16.0055 7.3749 15.5736 7.68462 15.2507L14.3373 8.40478C14.4918 8.24523 14.6763 8.11775 14.8802 8.02966C15.084 7.94156 15.3033 7.89457 15.5254 7.89139C15.7475 7.88821 15.968 7.9289 16.1743 8.01113C16.3806 8.09335 16.5687 8.2155 16.7277 8.37056Z" fill="#424242"/>
</svg>
