<svg width="18" height="18" viewBox="0 0 18 18" fill="none" xmlns="http://www.w3.org/2000/svg">
<path d="M16.0509 6.76667L4.31483 0.933338C3.85166 0.704179 3.32867 0.622597 2.81716 0.699715C2.30565 0.776833 1.83051 1.0089 1.45653 1.36427C1.08254 1.71964 0.827907 2.18102 0.727346 2.68551C0.626784 3.19 0.685187 3.71305 0.894591 4.18334L2.9065 8.65834C2.95215 8.76653 2.97566 8.88268 2.97566 9.00001C2.97566 9.11733 2.95215 9.23348 2.9065 9.34167L0.894591 13.8167C0.724166 14.1973 0.65212 14.6142 0.684999 15.0295C0.717878 15.4448 0.85464 15.8454 1.08286 16.1948C1.31107 16.5442 1.62351 16.8313 1.99177 17.0302C2.36003 17.229 2.77244 17.3332 3.19152 17.3333C3.58403 17.3294 3.9707 17.2383 4.32321 17.0667L16.0593 11.2333C16.4756 11.0252 16.8255 10.7061 17.07 10.3117C17.3146 9.91738 17.444 9.46325 17.444 9.00001C17.444 8.53676 17.3146 8.08263 17.07 7.68827C16.8255 7.29392 16.4756 6.97485 16.0593 6.76667H16.0509ZM15.3049 9.74167L3.56875 15.575C3.41464 15.6486 3.24159 15.6735 3.0728 15.6465C2.90402 15.6196 2.74756 15.5419 2.62442 15.424C2.50128 15.3062 2.41734 15.1537 2.38385 14.987C2.35036 14.8204 2.36892 14.6475 2.43705 14.4917L4.44057 10.0167C4.46651 9.95691 4.4889 9.8957 4.50764 9.83334H10.2835C10.5058 9.83334 10.719 9.74554 10.8762 9.58926C11.0335 9.43298 11.1218 9.22102 11.1218 9.00001C11.1218 8.77899 11.0335 8.56703 10.8762 8.41075C10.719 8.25447 10.5058 8.16667 10.2835 8.16667H4.50764C4.4889 8.10431 4.46651 8.0431 4.44057 7.98334L2.43705 3.50834C2.36892 3.35247 2.35036 3.17963 2.38385 3.01298C2.41734 2.84633 2.50128 2.69384 2.62442 2.57596C2.74756 2.45808 2.90402 2.38045 3.0728 2.35347C3.24159 2.32648 3.41464 2.35145 3.56875 2.42501L15.3049 8.25834C15.4422 8.32827 15.5574 8.43452 15.6379 8.56538C15.7183 8.69624 15.7609 8.84663 15.7609 9.00001C15.7609 9.15338 15.7183 9.30377 15.6379 9.43463C15.5574 9.56549 15.4422 9.67174 15.3049 9.74167Z" fill="#424242" fill-opacity="0.5"/>
</svg>
