<svg width="17" height="18" viewBox="0 0 17 18" fill="none" xmlns="http://www.w3.org/2000/svg">
<path d="M15.4914 6.76661L3.75526 0.933277C3.29209 0.704118 2.7691 0.622536 2.25759 0.699654C1.74608 0.776772 1.27094 1.00884 0.896955 1.36421C0.522969 1.71958 0.268337 2.18096 0.167775 2.68545C0.0672135 3.18994 0.125616 3.71299 0.335021 4.18328L2.34693 8.65828C2.39258 8.76647 2.41609 8.88262 2.41609 8.99994C2.41609 9.11727 2.39258 9.23342 2.34693 9.34161L0.335021 13.8166C0.164596 14.1972 0.0925492 14.6141 0.125428 15.0294C0.158307 15.4447 0.29507 15.8453 0.523286 16.1947C0.751503 16.5441 1.06394 16.8313 1.4322 17.0301C1.80046 17.229 2.21287 17.3332 2.63195 17.3333C3.02446 17.3294 3.41113 17.2383 3.76364 17.0666L15.4998 11.2333C15.916 11.0251 16.266 10.706 16.5105 10.3117C16.755 9.91732 16.8845 9.46319 16.8845 8.99994C16.8845 8.5367 16.755 8.08257 16.5105 7.68821C16.266 7.29386 15.916 6.97479 15.4998 6.76661H15.4914ZM14.7453 9.74161L3.00918 15.5749C2.85507 15.6485 2.68202 15.6735 2.51323 15.6465C2.34445 15.6195 2.18799 15.5419 2.06485 15.424C1.94171 15.3061 1.85776 15.1536 1.82428 14.987C1.79079 14.8203 1.80935 14.6475 1.87748 14.4916L3.881 10.0166C3.90694 9.95685 3.92933 9.89564 3.94807 9.83328H9.72391C9.94624 9.83328 10.1595 9.74548 10.3167 9.5892C10.4739 9.43292 10.5622 9.22096 10.5622 8.99994C10.5622 8.77893 10.4739 8.56697 10.3167 8.41069C10.1595 8.25441 9.94624 8.16661 9.72391 8.16661H3.94807C3.92933 8.10425 3.90694 8.04303 3.881 7.98328L1.87748 3.50828C1.80935 3.35241 1.79079 3.17957 1.82428 3.01292C1.85776 2.84627 1.94171 2.69378 2.06485 2.5759C2.18799 2.45802 2.34445 2.38039 2.51323 2.3534C2.68202 2.32642 2.85507 2.35139 3.00918 2.42494L14.7453 8.25828C14.8826 8.32821 14.9978 8.43446 15.0783 8.56532C15.1588 8.69617 15.2014 8.84657 15.2014 8.99994C15.2014 9.15332 15.1588 9.30371 15.0783 9.43457C14.9978 9.56543 14.8826 9.67168 14.7453 9.74161Z" fill="#424242"/>
</svg>
