<svg width="19" height="19" viewBox="0 0 19 19" fill="none" xmlns="http://www.w3.org/2000/svg">
<path d="M8.91889 1.19571C9.03726 0.824339 9.56274 0.824339 9.68111 1.19571L11.5237 6.97679C11.5766 7.14269 11.7307 7.25532 11.9048 7.25532H17.8838C18.2694 7.25532 18.4317 7.74724 18.1218 7.97676L13.2716 11.5691C13.1341 11.6709 13.0766 11.8489 13.1286 12.012L14.9781 17.8146C15.096 18.1845 14.6708 18.4886 14.3589 18.2575L9.53807 14.687C9.39664 14.5822 9.20336 14.5822 9.06193 14.687L4.24112 18.2575C3.92916 18.4886 3.50405 18.1845 3.62194 17.8146L5.47142 12.012C5.52338 11.8489 5.46588 11.6709 5.32838 11.5691L0.478177 7.97676C0.168293 7.74724 0.330625 7.25532 0.716249 7.25532H6.69517C6.86929 7.25532 7.02341 7.14269 7.07628 6.97679L8.91889 1.19571Z" fill="white"/>
<path d="M7.55267 7.12863L9.3 1.64648L11.0473 7.12863C11.1663 7.5019 11.5131 7.75532 11.9048 7.75532H17.5807L12.974 11.1673C12.6646 11.3964 12.5353 11.797 12.6522 12.1638L14.4076 17.6714L9.83566 14.2852C9.51744 14.0495 9.08256 14.0495 8.76434 14.2852L4.19236 17.6714L5.9478 12.1638C6.06472 11.797 5.93536 11.3964 5.62597 11.1673L1.01928 7.75532H6.69517C7.08694 7.75532 7.4337 7.5019 7.55267 7.12863ZM0.775767 7.57496C0.775809 7.57499 0.775852 7.57503 0.775894 7.57506L0.775767 7.57496L0.716249 7.65532L0.775767 7.57496Z" stroke="#424242" stroke-opacity="0.1"/>
</svg>
