<svg width="21" height="18" viewBox="0 0 21 18" fill="none" xmlns="http://www.w3.org/2000/svg">
<path d="M2.74202 9.9083L9.66825 16.4396C9.90684 16.6645 10.0261 16.777 10.1668 16.8047C10.2301 16.8172 10.2953 16.8172 10.3586 16.8047C10.4993 16.777 10.6185 16.6645 10.8571 16.4396L17.7833 9.9083C19.7321 8.0707 19.9687 5.04667 18.3297 2.92614L18.0216 2.52741C16.0609 -0.00934732 12.1252 0.416083 10.7475 3.31372C10.5529 3.72303 9.97249 3.72303 9.77784 3.31372C8.40019 0.416083 4.4645 -0.00934732 2.5038 2.52742L2.19562 2.92614C0.556627 5.04667 0.793274 8.0707 2.74202 9.9083Z" stroke="#424242" stroke-width="1.4"/>
</svg>
