<svg width="25" height="24" viewBox="0 0 25 24" fill="none" xmlns="http://www.w3.org/2000/svg">
<path d="M12.0664 7H20.036" stroke="#424242" stroke-width="2" stroke-linecap="round"/>
<path d="M4.09668 7H8.08149" stroke="#424242" stroke-width="2" stroke-linecap="round"/>
<path d="M17.0479 17H20.0365" stroke="#424242" stroke-width="2" stroke-linecap="round"/>
<path d="M4.09668 17H12.0663" stroke="#424242" stroke-width="2" stroke-linecap="round"/>
<path d="M8.08159 7C8.08159 8.10457 8.97362 9 10.074 9C11.1744 9 12.0664 8.10457 12.0664 7C12.0664 5.89543 11.1744 5 10.074 5C8.97362 5 8.08159 5.89543 8.08159 7Z" stroke="#424242" stroke-width="2" stroke-linecap="round"/>
<path d="M13.063 17C13.063 18.1046 13.9551 19 15.0554 19C16.1558 19 17.0479 18.1046 17.0479 17C17.0479 15.8954 16.1558 15 15.0554 15C13.9551 15 13.063 15.8954 13.063 17Z" stroke="#424242" stroke-width="2" stroke-linecap="round"/>
</svg>
