<svg width="28" height="28" viewBox="0 0 28 28" fill="none" xmlns="http://www.w3.org/2000/svg">
<path d="M10.0622 9.91658H4.81217C4.50276 9.91658 4.20601 9.79367 3.98722 9.57488C3.76842 9.35608 3.64551 9.05934 3.64551 8.74992V3.49992C3.64551 3.1905 3.76842 2.89375 3.98722 2.67496C4.20601 2.45617 4.50276 2.33325 4.81217 2.33325C5.12159 2.33325 5.41834 2.45617 5.63713 2.67496C5.85592 2.89375 5.97884 3.1905 5.97884 3.49992V7.58325H10.0622C10.3716 7.58325 10.6683 7.70617 10.8871 7.92496C11.1059 8.14375 11.2288 8.4405 11.2288 8.74992C11.2288 9.05934 11.1059 9.35608 10.8871 9.57488C10.6683 9.79367 10.3716 9.91658 10.0622 9.91658Z" fill="#8D0088"/>
<path d="M24.4998 15.1667C24.1904 15.1667 23.8936 15.0438 23.6748 14.825C23.4561 14.6062 23.3331 14.3095 23.3331 14C23.334 11.9462 22.657 9.94942 21.4071 8.31966C20.1572 6.6899 18.4043 5.51824 16.4205 4.98651C14.4366 4.45479 12.3327 4.59271 10.4353 5.37889C8.53782 6.16507 6.95291 7.55554 5.92647 9.33454C5.77145 9.60234 5.5164 9.79759 5.21742 9.87734C4.91844 9.95709 4.60003 9.91481 4.33222 9.75979C4.06442 9.60477 3.86917 9.34971 3.78942 9.05073C3.70967 8.75175 3.75195 8.43334 3.90697 8.16554C5.1906 5.94215 7.17211 4.20452 9.54409 3.22224C11.9161 2.23995 14.5459 2.06792 17.0256 2.73282C19.5054 3.39773 21.6964 4.8624 23.2587 6.89962C24.8211 8.93684 25.6674 11.4327 25.6665 14C25.6665 14.3095 25.5436 14.6062 25.3248 14.825C25.106 15.0438 24.8092 15.1667 24.4998 15.1667ZM23.1873 25.6667C22.8779 25.6667 22.5811 25.5438 22.3623 25.325C22.1436 25.1062 22.0206 24.8095 22.0206 24.5V20.4167H17.9373C17.6279 20.4167 17.3311 20.2938 17.1123 20.075C16.8936 19.8562 16.7706 19.5595 16.7706 19.25C16.7706 18.9406 16.8936 18.6439 17.1123 18.4251C17.3311 18.2063 17.6279 18.0834 17.9373 18.0834H23.1873C23.4967 18.0834 23.7935 18.2063 24.0123 18.4251C24.2311 18.6439 24.354 18.9406 24.354 19.25V24.5C24.354 24.8095 24.2311 25.1062 24.0123 25.325C23.7935 25.5438 23.4967 25.6667 23.1873 25.6667Z" fill="#8D0088"/>
<path d="M13.9997 25.6666C10.9066 25.6629 7.94131 24.4325 5.75419 22.2454C3.56707 20.0583 2.33671 17.093 2.33301 13.9999C2.33301 13.6905 2.45592 13.3938 2.67472 13.175C2.89351 12.9562 3.19026 12.8333 3.49967 12.8333C3.80909 12.8333 4.10584 12.9562 4.32463 13.175C4.54342 13.3938 4.66634 13.6905 4.66634 13.9999C4.66545 16.0538 5.34249 18.0505 6.5924 19.6803C7.8423 21.3101 9.59518 22.4817 11.579 23.0134C13.5629 23.5452 15.6668 23.4072 17.5642 22.6211C19.4617 21.8349 21.0466 20.4444 22.073 18.6654C22.1498 18.5328 22.2519 18.4166 22.3735 18.3235C22.4952 18.2304 22.634 18.1621 22.7821 18.1226C22.9301 18.0831 23.0845 18.0732 23.2363 18.0934C23.3882 18.1135 23.5347 18.1634 23.6673 18.2402C23.7999 18.3169 23.916 18.419 24.0092 18.5407C24.1023 18.6624 24.1706 18.8012 24.2101 18.9492C24.2495 19.0973 24.2595 19.2516 24.2393 19.4035C24.2192 19.5554 24.1693 19.7018 24.0925 19.8344C23.0664 21.6036 21.5947 23.0731 19.8238 24.0964C18.053 25.1197 16.0449 25.661 13.9997 25.6666Z" fill="#8D0088"/>
</svg>
