<svg width="44" height="31" viewBox="0 0 44 31" fill="none" xmlns="http://www.w3.org/2000/svg">
<path d="M35.475 11.7025C34.8592 8.40433 33.1789 5.43441 30.7213 3.30004C28.2636 1.16566 25.181 -0.00075997 22 3.7149e-07C16.7017 3.7149e-07 12.1 3.1775 9.80833 7.8275C7.11376 8.13524 4.62185 9.48447 2.8114 11.6159C1.00095 13.7474 -0.000314787 16.5107 7.42367e-08 19.375C7.42367e-08 25.7881 4.93167 31 11 31H34.8333C39.8933 31 44 26.66 44 21.3125C44 16.1975 40.2417 12.0513 35.475 11.7025ZM34.8333 27.125H11C6.94833 27.125 3.66667 23.6569 3.66667 19.375C3.66667 15.4031 6.47167 12.09 10.1933 11.6831L12.155 11.47L13.0717 9.62938C13.9148 7.89488 15.1944 6.43989 16.7697 5.4246C18.345 4.40931 20.1549 3.8731 22 3.875C26.8033 3.875 30.9467 7.47875 31.8817 12.4581L32.4317 15.3644L35.2367 15.5775C36.6149 15.6755 37.9068 16.3215 38.8524 17.3855C39.798 18.4496 40.3272 19.8527 40.3333 21.3125C40.3333 24.5094 37.8583 27.125 34.8333 27.125ZM14.6667 17.4375H19.3417V23.25H24.6583V17.4375H29.3333L22 9.6875L14.6667 17.4375Z" fill="#424242" fill-opacity="0.5"/>
</svg>
