<svg width="27" height="20" viewBox="0 0 27 20" fill="none" xmlns="http://www.w3.org/2000/svg">
<path d="M20.25 14.4444C19.5044 14.4444 18.9 14.9419 18.9 15.5556C18.9 16.1692 19.5044 16.6667 20.25 16.6667V14.4444ZM20.2635 16.6667C21.0091 16.6667 21.6135 16.1692 21.6135 15.5556C21.6135 14.9419 21.0091 14.4444 20.2635 14.4444V16.6667ZM18.36 11.1111C17.6144 11.1111 17.01 11.6086 17.01 12.2222C17.01 12.8359 17.6144 13.3333 18.36 13.3333V11.1111ZM8.64 13.3333C9.38558 13.3333 9.99 12.8359 9.99 12.2222C9.99 11.6086 9.38558 11.1111 8.64 11.1111V13.3333ZM3.01675 18.7198L2.50013 19.7462L3.01675 18.7198ZM1.55553 17.5171L0.308288 17.9423L1.55553 17.5171ZM25.4445 17.5171L26.6917 17.9423L25.4445 17.5171ZM23.9833 18.7198L24.4998 19.7462L23.9833 18.7198ZM25.4445 13.594L26.6917 13.1689L25.4445 13.594ZM23.9833 12.3913L23.4666 13.4179L23.9833 12.3913ZM1.55553 13.594L0.308288 13.1688L1.55553 13.594ZM3.01675 12.3913L2.50013 11.3649L3.01675 12.3913ZM12.15 13.3333C12.15 13.947 12.7544 14.4444 13.5 14.4444C14.2456 14.4444 14.85 13.947 14.85 13.3333H12.15ZM13.5 1.11111L14.4546 0.325433C13.9274 -0.108478 13.0726 -0.108478 12.5454 0.325433L13.5 1.11111ZM16.5954 5.23012C17.1226 5.66403 17.9774 5.66403 18.5046 5.23012C19.0318 4.7962 19.0318 4.09269 18.5046 3.65877L16.5954 5.23012ZM8.4954 3.65877C7.9682 4.09269 7.9682 4.7962 8.4954 5.23012C9.02262 5.66403 9.87739 5.66403 10.4046 5.23012L8.4954 3.65877ZM20.25 16.6667H20.2635V14.4444H20.25V16.6667ZM21.6 17.7778H5.4V20H21.6V17.7778ZM18.36 13.3333H21.6V11.1111H18.36V13.3333ZM5.4 13.3333H8.64V11.1111H5.4V13.3333ZM5.4 17.7778C4.75251 17.7778 4.3345 17.7772 4.01458 17.7592C3.70678 17.7419 3.58956 17.7123 3.53338 17.6932L2.50013 19.7462C2.94014 19.8962 3.38552 19.9512 3.83079 19.9763C4.26392 20.0006 4.78945 20 5.4 20V17.7778ZM1.61239e-06 15.5556C1.61239e-06 16.0581 -0.000727513 16.4906 0.028824 16.8471C0.059199 17.2136 0.126038 17.5801 0.308288 17.9423L2.80276 17.0919C2.77949 17.0457 2.74357 16.9491 2.72256 16.6958C2.70073 16.4326 2.7 16.0884 2.7 15.5556H1.61239e-06ZM3.53338 17.6932C3.20259 17.5804 2.93977 17.3641 2.80276 17.0919L0.308288 17.9423C0.719335 18.759 1.50778 19.408 2.50013 19.7462L3.53338 17.6932ZM24.3 15.5556C24.3 16.0884 24.2993 16.4326 24.2775 16.6958C24.2564 16.9491 24.2205 17.0457 24.1973 17.0919L26.6917 17.9423C26.8739 17.5801 26.9407 17.2136 26.9712 16.8471C27.0007 16.4906 27 16.0581 27 15.5556H24.3ZM21.6 20C22.2106 20 22.736 20.0006 23.1692 19.9763C23.6145 19.9512 24.0598 19.8962 24.4998 19.7462L23.4666 17.6932C23.4105 17.7123 23.2932 17.7419 22.9854 17.7592C22.6656 17.7772 22.2475 17.7778 21.6 17.7778V20ZM24.1973 17.0919C24.0602 17.3641 23.7974 17.5804 23.4666 17.6932L24.4998 19.7462C25.4922 19.408 26.2807 18.759 26.6917 17.9423L24.1973 17.0919ZM27 15.5556C27 15.053 27.0007 14.6206 26.9712 14.264C26.9407 13.8976 26.8739 13.531 26.6917 13.1689L24.1973 14.0192C24.2205 14.0654 24.2564 14.162 24.2775 14.4153C24.2993 14.6786 24.3 15.0227 24.3 15.5556H27ZM21.6 13.3333C22.2475 13.3333 22.6656 13.3339 22.9854 13.3519C23.2932 13.3692 23.4105 13.3988 23.4666 13.4179L24.4998 11.3649C24.0598 11.2149 23.6145 11.1599 23.1692 11.1348C22.736 11.1106 22.2106 11.1111 21.6 11.1111V13.3333ZM26.6917 13.1689C26.2807 12.3521 25.4922 11.7031 24.4998 11.3649L23.4666 13.4179C23.7974 13.5307 24.0602 13.747 24.1973 14.0192L26.6917 13.1689ZM2.7 15.5556C2.7 15.0227 2.70073 14.6786 2.72256 14.4153C2.74357 14.162 2.77949 14.0654 2.80276 14.0192L0.308288 13.1688C0.126038 13.531 0.059199 13.8976 0.028824 14.264C-0.000727513 14.6206 1.61239e-06 15.053 1.61239e-06 15.5556H2.7ZM5.4 11.1111C4.78945 11.1111 4.26392 11.1106 3.83079 11.1348C3.38552 11.1599 2.94014 11.2149 2.50013 11.3649L3.53338 13.4179C3.58956 13.3988 3.70678 13.3692 4.01458 13.3519C4.3345 13.3339 4.75251 13.3333 5.4 13.3333V11.1111ZM2.80276 14.0192C2.93977 13.747 3.20259 13.5307 3.53338 13.4179L2.50013 11.3649C1.50776 11.7031 0.719335 12.3521 0.308288 13.1688L2.80276 14.0192ZM14.85 13.3333V1.11111H12.15V13.3333H14.85ZM18.5046 3.65877L14.4546 0.325433L12.5454 1.89679L16.5954 5.23012L18.5046 3.65877ZM12.5454 0.325433L8.4954 3.65877L10.4046 5.23012L14.4546 1.89679L12.5454 0.325433Z" fill="#424242"/>
</svg>
