<svg width="22" height="28" viewBox="0 0 22 28" fill="none" xmlns="http://www.w3.org/2000/svg">
<g clip-path="url(#clip0_116_515)">
<path d="M13.7391 18.4802C13.2348 18.4802 12.8261 18.9816 12.8261 19.6002C12.8261 20.2187 13.2348 20.7202 13.7391 20.7202V18.4802ZM13.7482 20.7202C14.2525 20.7202 14.6613 20.2187 14.6613 19.6002C14.6613 18.9816 14.2525 18.4802 13.7482 18.4802V20.7202ZM12.4609 15.1202C11.9566 15.1202 11.5478 15.6216 11.5478 16.2402C11.5478 16.8587 11.9566 17.3602 12.4609 17.3602V15.1202ZM5.88694 17.3602C6.3912 17.3602 6.79998 16.8587 6.79998 16.2402C6.79998 15.6216 6.3912 15.1202 5.88694 15.1202V17.3602ZM2.08377 22.7897L1.73437 23.8244L2.08377 22.7897ZM1.0955 21.5774L0.251961 22.006L1.0955 21.5774ZM17.2523 21.5774L18.0958 22.006L17.2523 21.5774ZM16.264 22.7897L16.6134 23.8244L16.264 22.7897ZM17.2523 17.6229L18.0958 17.1944L17.2523 17.6229ZM16.264 16.4106L15.9146 17.4454L16.264 16.4106ZM1.0955 17.6229L0.251961 17.1943L1.0955 17.6229ZM2.08377 16.4106L1.73437 15.376L2.08377 16.4106ZM8.26085 17.3602C8.26085 17.9787 8.66962 18.4802 9.1739 18.4802C9.67817 18.4802 10.0869 17.9787 10.0869 17.3602H8.26085ZM9.1739 5.04017L9.81951 4.2482C9.46297 3.81082 8.88483 3.81082 8.52828 4.2482L9.1739 5.04017ZM11.2674 9.19213C11.624 9.62951 12.2021 9.62951 12.5586 9.19213C12.9152 8.75473 12.9152 8.0456 12.5586 7.6082L11.2674 9.19213ZM5.78914 7.6082C5.43258 8.0456 5.43258 8.75473 5.78914 9.19213C6.14571 9.62951 6.72382 9.62951 7.08039 9.19213L5.78914 7.6082ZM13.7391 20.7202H13.7482V18.4802H13.7391V20.7202ZM14.6522 21.8402H3.69563V24.0802H14.6522V21.8402ZM12.4609 17.3602H14.6522V15.1202H12.4609V17.3602ZM3.69563 17.3602H5.88694V15.1202H3.69563V17.3602ZM3.69563 21.8402C3.25772 21.8402 2.97501 21.8396 2.75863 21.8215C2.55046 21.804 2.47118 21.7742 2.43319 21.7549L1.73437 23.8244C2.03196 23.9756 2.33318 24.031 2.63433 24.0563C2.92727 24.0807 3.2827 24.0802 3.69563 24.0802V21.8402ZM0.0434581 19.6002C0.0434581 20.1067 0.042965 20.5426 0.0629515 20.9021C0.083495 21.2714 0.1287 21.6409 0.251961 22.006L1.93905 21.1488C1.92331 21.1022 1.89901 21.0049 1.8848 20.7495C1.87004 20.4842 1.86955 20.1373 1.86955 19.6002H0.0434581ZM2.43319 21.7549C2.20946 21.6413 2.03171 21.4232 1.93905 21.1488L0.251961 22.006C0.529964 22.8292 1.06321 23.4834 1.73437 23.8244L2.43319 21.7549ZM16.4783 19.6002C16.4783 20.1373 16.4778 20.4842 16.463 20.7495C16.4488 21.0049 16.4245 21.1022 16.4088 21.1488L18.0958 22.006C18.2191 21.6409 18.2643 21.2714 18.2849 20.9021C18.3048 20.5426 18.3043 20.1067 18.3043 19.6002H16.4783ZM14.6522 24.0802C15.0651 24.0802 15.4205 24.0807 15.7135 24.0563C16.0146 24.031 16.3158 23.9756 16.6134 23.8244L15.9146 21.7549C15.8766 21.7742 15.7973 21.804 15.5891 21.8215C15.3728 21.8396 15.0901 21.8402 14.6522 21.8402V24.0802ZM16.4088 21.1488C16.3161 21.4232 16.1383 21.6413 15.9146 21.7549L16.6134 23.8244C17.2846 23.4834 17.8179 22.8292 18.0958 22.006L16.4088 21.1488ZM18.3043 19.6002C18.3043 19.0936 18.3048 18.6577 18.2849 18.2983C18.2643 17.9289 18.2191 17.5594 18.0958 17.1944L16.4088 18.0515C16.4245 18.0981 16.4488 18.1955 16.463 18.4508C16.4778 18.7161 16.4783 19.063 16.4783 19.6002H18.3043ZM14.6522 17.3602C15.0901 17.3602 15.3728 17.3607 15.5891 17.3789C15.7973 17.3963 15.8766 17.4261 15.9146 17.4454L16.6134 15.376C16.3158 15.2248 16.0146 15.1693 15.7135 15.144C15.4205 15.1196 15.0651 15.1202 14.6522 15.1202V17.3602ZM18.0958 17.1944C17.8179 16.3711 17.2846 15.7169 16.6134 15.376L15.9146 17.4454C16.1383 17.5591 16.3161 17.7771 16.4088 18.0515L18.0958 17.1944ZM1.86955 19.6002C1.86955 19.063 1.87004 18.7161 1.8848 18.4508C1.89901 18.1955 1.92331 18.0981 1.93905 18.0515L0.251961 17.1943C0.1287 17.5594 0.083495 17.9289 0.0629515 18.2983C0.042965 18.6577 0.0434581 19.0936 0.0434581 19.6002H1.86955ZM3.69563 15.1202C3.2827 15.1202 2.92727 15.1196 2.63433 15.144C2.33318 15.1693 2.03196 15.2248 1.73437 15.376L2.43319 17.4454C2.47118 17.4261 2.55046 17.3963 2.75863 17.3789C2.97501 17.3607 3.25772 17.3602 3.69563 17.3602V15.1202ZM1.93905 18.0515C2.03171 17.7771 2.20946 17.5591 2.43319 17.4454L1.73437 15.376C1.0632 15.7169 0.529964 16.3711 0.251961 17.1943L1.93905 18.0515ZM10.0869 17.3602V5.04017H8.26085V17.3602H10.0869ZM12.5586 7.6082L9.81951 4.2482L8.52828 5.83213L11.2674 9.19213L12.5586 7.6082ZM8.52828 4.2482L5.78914 7.6082L7.08039 9.19213L9.81951 5.83213L8.52828 4.2482Z" fill="#424242"/>
</g>
<defs>
<clipPath id="clip0_116_515">
<rect width="21.9131" height="26.88" fill="white" transform="translate(0.043457 0.560059)"/>
</clipPath>
</defs>
</svg>
